<svg width="151" height="28" viewBox="0 0 151 28" fill="none" xmlns="http://www.w3.org/2000/svg">
<path d="M21.222 5.238H13.59V27H8.172V5.238H0.54V0.881998H21.222V5.238Z" fill="#0783DB"/>
<path d="M23.0766 24.39C23.0766 23.994 23.1486 23.622 23.2926 23.274C23.4486 22.914 23.6586 22.608 23.9226 22.356C24.1866 22.092 24.4926 21.888 24.8406 21.744C25.2006 21.588 25.5906 21.51 26.0106 21.51C26.4186 21.51 26.8026 21.588 27.1626 21.744C27.5226 21.888 27.8346 22.092 28.0986 22.356C28.3626 22.608 28.5666 22.914 28.7106 23.274C28.8666 23.622 28.9446 23.994 28.9446 24.39C28.9446 24.798 28.8666 25.176 28.7106 25.524C28.5666 25.872 28.3626 26.178 28.0986 26.442C27.8346 26.694 27.5226 26.892 27.1626 27.036C26.8026 27.18 26.4186 27.252 26.0106 27.252C25.5906 27.252 25.2006 27.18 24.8406 27.036C24.4926 26.892 24.1866 26.694 23.9226 26.442C23.6586 26.178 23.4486 25.872 23.2926 25.524C23.1486 25.176 23.0766 24.798 23.0766 24.39ZM52.3266 24.39C52.3266 23.994 52.3986 23.622 52.5426 23.274C52.6986 22.914 52.9086 22.608 53.1726 22.356C53.4366 22.092 53.7426 21.888 54.0906 21.744C54.4506 21.588 54.8406 21.51 55.2606 21.51C55.6686 21.51 56.0526 21.588 56.4126 21.744C56.7726 21.888 57.0846 22.092 57.3486 22.356C57.6126 22.608 57.8166 22.914 57.9606 23.274C58.1166 23.622 58.1946 23.994 58.1946 24.39C58.1946 24.798 58.1166 25.176 57.9606 25.524C57.8166 25.872 57.6126 26.178 57.3486 26.442C57.0846 26.694 56.7726 26.892 56.4126 27.036C56.0526 27.18 55.6686 27.252 55.2606 27.252C54.8406 27.252 54.4506 27.18 54.0906 27.036C53.7426 26.892 53.4366 26.694 53.1726 26.442C52.9086 26.178 52.6986 25.872 52.5426 25.524C52.3986 25.176 52.3266 24.798 52.3266 24.39ZM86.182 24.39C86.182 23.994 86.254 23.622 86.398 23.274C86.554 22.914 86.764 22.608 87.028 22.356C87.292 22.092 87.598 21.888 87.946 21.744C88.306 21.588 88.696 21.51 89.116 21.51C89.524 21.51 89.908 21.588 90.268 21.744C90.628 21.888 90.94 22.092 91.204 22.356C91.468 22.608 91.672 22.914 91.816 23.274C91.972 23.622 92.05 23.994 92.05 24.39C92.05 24.798 91.972 25.176 91.816 25.524C91.672 25.872 91.468 26.178 91.204 26.442C90.94 26.694 90.628 26.892 90.268 27.036C89.908 27.18 89.524 27.252 89.116 27.252C88.696 27.252 88.306 27.18 87.946 27.036C87.598 26.892 87.292 26.694 87.028 26.442C86.764 26.178 86.554 25.872 86.398 25.524C86.254 25.176 86.182 24.798 86.182 24.39ZM118.491 24.39C118.491 23.994 118.563 23.622 118.707 23.274C118.863 22.914 119.073 22.608 119.337 22.356C119.601 22.092 119.907 21.888 120.255 21.744C120.615 21.588 121.005 21.51 121.425 21.51C121.833 21.51 122.217 21.588 122.577 21.744C122.937 21.888 123.249 22.092 123.513 22.356C123.777 22.608 123.981 22.914 124.125 23.274C124.281 23.622 124.359 23.994 124.359 24.39C124.359 24.798 124.281 25.176 124.125 25.524C123.981 25.872 123.777 26.178 123.513 26.442C123.249 26.694 122.937 26.892 122.577 27.036C122.217 27.18 121.833 27.252 121.425 27.252C121.005 27.252 120.615 27.18 120.255 27.036C119.907 26.892 119.601 26.694 119.337 26.442C119.073 26.178 118.863 25.872 118.707 25.524C118.563 25.176 118.491 24.798 118.491 24.39Z" fill="black"/>
<path d="M38.4767 5.112V11.826H47.1887V15.912H38.4767V22.77H49.6727V27H33.0407V0.881998H49.6727V5.112H38.4767Z" fill="#61B24F"/>
<path d="M76.0787 17.082L73.2527 9.09C73.0847 8.67 72.9047 8.178 72.7127 7.614C72.5327 7.05 72.3587 6.438 72.1907 5.778C72.0227 6.45 71.8427 7.074 71.6507 7.65C71.4707 8.214 71.2967 8.706 71.1287 9.126L68.3207 17.082H76.0787ZM85.1507 27H80.9567C80.4887 27 80.1047 26.892 79.8047 26.676C79.5167 26.448 79.3007 26.16 79.1567 25.812L77.3927 20.826H66.9887L65.2247 25.812C65.1047 26.112 64.8947 26.388 64.5947 26.64C64.2947 26.88 63.9167 27 63.4607 27H59.2307L69.4367 0.881998H74.9627L85.1507 27Z" fill="#C55A0E"/>
<path d="M113.93 20.574C114.23 20.574 114.482 20.682 114.686 20.898L116.828 23.184C115.772 24.528 114.458 25.548 112.886 26.244C111.326 26.94 109.466 27.288 107.306 27.288C105.35 27.288 103.592 26.958 102.032 26.298C100.472 25.626 99.1462 24.696 98.0542 23.508C96.9622 22.32 96.1222 20.91 95.5342 19.278C94.9462 17.646 94.6522 15.864 94.6522 13.932C94.6522 12.636 94.7902 11.406 95.0662 10.242C95.3542 9.066 95.7682 7.986 96.3082 7.002C96.8482 6.018 97.4962 5.13 98.2522 4.338C99.0202 3.546 99.8842 2.874 100.844 2.322C101.804 1.758 102.848 1.332 103.976 1.044C105.116 0.743998 106.328 0.593998 107.612 0.593998C108.572 0.593998 109.478 0.677998 110.33 0.845999C111.194 1.014 111.998 1.248 112.742 1.548C113.486 1.848 114.17 2.214 114.794 2.646C115.43 3.066 116 3.528 116.504 4.032L114.686 6.516C114.578 6.672 114.44 6.81 114.272 6.93C114.104 7.05 113.876 7.11 113.588 7.11C113.3 7.11 113.006 7.008 112.706 6.804C112.418 6.6 112.058 6.372 111.626 6.12C111.206 5.868 110.672 5.64 110.024 5.436C109.388 5.232 108.578 5.13 107.594 5.13C106.502 5.13 105.5 5.328 104.588 5.724C103.676 6.12 102.89 6.696 102.23 7.452C101.582 8.196 101.078 9.114 100.718 10.206C100.358 11.298 100.178 12.54 100.178 13.932C100.178 15.336 100.37 16.59 100.754 17.694C101.15 18.786 101.684 19.71 102.356 20.466C103.04 21.222 103.832 21.798 104.732 22.194C105.644 22.578 106.616 22.77 107.648 22.77C108.26 22.77 108.812 22.74 109.304 22.68C109.808 22.62 110.27 22.518 110.69 22.374C111.122 22.23 111.524 22.044 111.896 21.816C112.28 21.588 112.664 21.3 113.048 20.952C113.18 20.844 113.318 20.754 113.462 20.682C113.606 20.61 113.762 20.574 113.93 20.574Z" fill="#8D4396"/>
<path d="M150.829 0.881998V27H145.393V15.75H133.891V27H128.455V0.881998H133.891V11.97H145.393V0.881998H150.829Z" fill="#525457"/>
</svg>
